<svg xmlns="http://www.w3.org/2000/svg" viewBox="0 0 1410.2675000000002 2228" width="1410.2675000000002" height="2228" style="--bg:#ffffff;--fg:#1f2328;--line:#d1d9e0;--accent:#0969da;--muted:#59636e;background:var(--bg)">
<style>
  @import url('https://fonts.googleapis.com/css2?family=Inter:wght@400;500;600;700&amp;display=swap');
  text { font-family: 'Inter', system-ui, sans-serif; }
  svg {
    /* Derived from --bg and --fg (overridable via --line, --accent, etc.) */
    --_text:          var(--fg);
    --_text-sec:      var(--muted, color-mix(in srgb, var(--fg) 60%, var(--bg)));
    --_text-muted:    var(--muted, color-mix(in srgb, var(--fg) 40%, var(--bg)));
    --_text-faint:    color-mix(in srgb, var(--fg) 25%, var(--bg));
    --_line:          var(--line, color-mix(in srgb, var(--fg) 30%, var(--bg)));
    --_arrow:         var(--accent, color-mix(in srgb, var(--fg) 50%, var(--bg)));
    --_node-fill:     var(--surface, color-mix(in srgb, var(--fg) 3%, var(--bg)));
    --_node-stroke:   var(--border, color-mix(in srgb, var(--fg) 20%, var(--bg)));
    --_group-fill:    var(--bg);
    --_group-hdr:     color-mix(in srgb, var(--fg) 5%, var(--bg));
    --_inner-stroke:  color-mix(in srgb, var(--fg) 12%, var(--bg));
    --_key-badge:     color-mix(in srgb, var(--fg) 10%, var(--bg));
  }
</style>
<defs>
  <marker id="arrowhead" markerWidth="8" markerHeight="4.8" refX="8" refY="2.4" orient="auto">
    <polygon points="0 0, 8 2.4, 0 4.8" fill="var(--_arrow)" />
  </marker>
  <marker id="arrowhead-start" markerWidth="8" markerHeight="4.8" refX="0" refY="2.4" orient="auto-start-reverse">
    <polygon points="8 0, 0 2.4, 8 4.8" fill="var(--_arrow)" />
  </marker>
</defs>
<rect x="225.23749999999998" y="40" width="133.2" height="112" rx="0" ry="0" fill="var(--_group-fill)" stroke="var(--_node-stroke)" stroke-width="1" />
<rect x="225.23749999999998" y="40" width="133.2" height="28" rx="0" ry="0" fill="var(--_group-hdr)" stroke="var(--_node-stroke)" stroke-width="1" />
<text x="237.23749999999998" y="54" dy="0.35em" font-size="12" font-weight="600" fill="var(--_text-sec)">&quot;外部来源&quot;</text>
<rect x="121.5625" y="213" width="543.125" height="268" rx="0" ry="0" fill="var(--_group-fill)" stroke="var(--_node-stroke)" stroke-width="1" />
<rect x="121.5625" y="213" width="543.125" height="28" rx="0" ry="0" fill="var(--_group-hdr)" stroke="var(--_node-stroke)" stroke-width="1" />
<text x="133.5625" y="227" dy="0.35em" font-size="12" font-weight="600" fill="var(--_text-sec)">&quot;NanoClaw 服务层&quot;</text>
<rect x="40" y="542" width="543.5250000000001" height="1646" rx="0" ry="0" fill="var(--_group-fill)" stroke="var(--_node-stroke)" stroke-width="1" />
<rect x="40" y="542" width="543.5250000000001" height="28" rx="0" ry="0" fill="var(--_group-hdr)" stroke="var(--_node-stroke)" stroke-width="1" />
<text x="52" y="556" dy="0.35em" font-size="12" font-weight="600" fill="var(--_text-sec)">&quot;核心模块&quot;</text>
<rect x="704.8125" y="1228" width="383.55500000000006" height="285" rx="0" ry="0" fill="var(--_group-fill)" stroke="var(--_node-stroke)" stroke-width="1" />
<rect x="704.8125" y="1228" width="383.55500000000006" height="28" rx="0" ry="0" fill="var(--_group-hdr)" stroke="var(--_node-stroke)" stroke-width="1" />
<text x="716.8125" y="1242" dy="0.35em" font-size="12" font-weight="600" fill="var(--_text-sec)">&quot;容器运行时&quot;</text>
<rect x="614.2500000000001" y="1574" width="500.2249999999999" height="285" rx="0" ry="0" fill="var(--_group-fill)" stroke="var(--_node-stroke)" stroke-width="1" />
<rect x="614.2500000000001" y="1574" width="500.2249999999999" height="28" rx="0" ry="0" fill="var(--_group-hdr)" stroke="var(--_node-stroke)" stroke-width="1" />
<text x="626.2500000000001" y="1588" dy="0.35em" font-size="12" font-weight="600" fill="var(--_text-sec)">&quot;Agent 容器&quot;</text>
<rect x="1108.3675" y="698" width="261.9000000000001" height="815" rx="0" ry="0" fill="var(--_group-fill)" stroke="var(--_node-stroke)" stroke-width="1" />
<rect x="1108.3675" y="698" width="261.9000000000001" height="28" rx="0" ry="0" fill="var(--_group-hdr)" stroke="var(--_node-stroke)" stroke-width="1" />
<text x="1120.3675" y="712" dy="0.35em" font-size="12" font-weight="600" fill="var(--_text-sec)">&quot;数据存储&quot;</text>
<polyline points="291.8375,132 291.8375,269" fill="none" stroke="var(--_line)" stroke-width="0.75" marker-end="url(#arrowhead)" />
<polyline points="291.8375,305 291.8375,425" fill="none" stroke="var(--_line)" stroke-width="0.75" marker-end="url(#arrowhead)" />
<polyline points="291.8375,461 291.8375,598" fill="none" stroke="var(--_line)" stroke-width="0.75" marker-end="url(#arrowhead)" />
<polyline points="291.8375,634 291.8375,777.5 1130.3675,777.5" fill="none" stroke="var(--_line)" stroke-width="0.75" marker-end="url(#arrowhead)" />
<polyline points="1239.3175,801 1239.3175,956 370.4625000000001,956" fill="none" stroke="var(--_line)" stroke-width="0.75" stroke-dasharray="4 4" marker-end="url(#arrowhead)" />
<polyline points="279.3875000000001,974 279.3875000000001,994 212.12500000000006,994 212.12500000000006,1111" fill="none" stroke="var(--_line)" stroke-width="0.75" marker-end="url(#arrowhead)" />
<polyline points="212.12500000000006,1147 212.12500000000006,1302 803.0075000000002,1302" fill="none" stroke="var(--_line)" stroke-width="0.75" marker-end="url(#arrowhead)" />
<polyline points="933.4075000000001,1320 933.4075000000001,1340 875.0875,1340 875.0875,1457" fill="none" stroke="var(--_line)" stroke-width="0.75" marker-end="url(#arrowhead)" />
<polyline points="875.0875,1493 875.0875,1630" fill="none" stroke="var(--_line)" stroke-width="0.75" marker-end="url(#arrowhead)" />
<polyline points="875.0875,1666 875.0875,1686 761.2875000000001,1686 761.2875000000001,1803" fill="none" stroke="var(--_line)" stroke-width="0.75" marker-end="url(#arrowhead)" />
<polyline points="875.0875,1666 875.0875,1686 988.8875,1686 988.8875,1803" fill="none" stroke="var(--_line)" stroke-width="0.75" marker-end="url(#arrowhead)" />
<polyline points="988.8875,1839 988.8875,1879 456.1500000000001,1879 456.1500000000001,1976" fill="none" stroke="var(--_line)" stroke-width="0.75" marker-end="url(#arrowhead)" />
<polyline points="456.1500000000001,2012 456.1500000000001,2150 524.6500000000001,2150" fill="none" stroke="var(--_line)" stroke-width="0.75" marker-end="url(#arrowhead)" />
<polyline points="401.4000000000001,2132 401.4000000000001,2112 346.6500000000001,2112 346.6500000000001,956 370.4625000000001,956" fill="none" stroke="var(--_line)" stroke-width="0.75" marker-end="url(#arrowhead)" />
<polyline points="933.4075000000001,1320 933.4075000000001,1475 1138.1175,1475" fill="none" stroke="var(--_line)" stroke-width="0.75" marker-end="url(#arrowhead)" />
<polyline points="933.4075000000001,1320 933.4075000000001,1340 1030.0475000000001,1340 1030.0475000000001,1475 1258.4675000000002,1475" fill="none" stroke="var(--_line)" stroke-width="0.75" marker-end="url(#arrowhead)" />
<rect x="238.0775" y="187" width="107.52000000000001" height="27" rx="4" ry="4" fill="var(--bg)" stroke="var(--_inner-stroke)" stroke-width="0.5" />
<text x="291.8375" y="200.5" text-anchor="middle" dy="0.35em" font-size="11" font-weight="400" fill="var(--_text-muted)">&quot;HTTP/WebSocket&quot;</text>
<rect x="238.0775" y="516" width="107.52000000000001" height="27" rx="4" ry="4" fill="var(--bg)" stroke="var(--_inner-stroke)" stroke-width="0.5" />
<text x="291.8375" y="529.5" text-anchor="middle" dy="0.35em" font-size="11" font-weight="400" fill="var(--_text-muted)">&quot;storeMessage()&quot;</text>
<rect x="1179.8375" y="856" width="118.96000000000001" height="27" rx="4" ry="4" fill="var(--bg)" stroke="var(--_inner-stroke)" stroke-width="0.5" />
<text x="1239.3175" y="869.5" text-anchor="middle" dy="0.35em" font-size="11" font-weight="400" fill="var(--_text-muted)">&quot;getNewMessages()&quot;</text>
<rect x="186.96500000000006" y="1029" width="50.32" height="27" rx="4" ry="4" fill="var(--bg)" stroke="var(--_inner-stroke)" stroke-width="0.5" />
<text x="212.12500000000006" y="1042.5" text-anchor="middle" dy="0.35em" font-size="11" font-weight="400" fill="var(--_text-muted)">&quot;触发检测&quot;</text>
<rect x="186.96500000000006" y="1202" width="50.32" height="27" rx="4" ry="4" fill="var(--bg)" stroke="var(--_inner-stroke)" stroke-width="0.5" />
<text x="212.12500000000006" y="1215.5" text-anchor="middle" dy="0.35em" font-size="11" font-weight="400" fill="var(--_text-muted)">&quot;并发控制&quot;</text>
<rect x="832.7674999999999" y="1548" width="84.64" height="27" rx="4" ry="4" fill="var(--bg)" stroke="var(--_inner-stroke)" stroke-width="0.5" />
<text x="875.0875" y="1561.5" text-anchor="middle" dy="0.35em" font-size="11" font-weight="400" fill="var(--_text-muted)">&quot;Docker run&quot;</text>
<rect x="741.8475000000001" y="1721" width="38.88" height="27" rx="4" ry="4" fill="var(--bg)" stroke="var(--_inner-stroke)" stroke-width="0.5" />
<text x="761.2875000000001" y="1734.5" text-anchor="middle" dy="0.35em" font-size="11" font-weight="400" fill="var(--_text-muted)">&quot;读取&quot;</text>
<rect x="969.4475" y="1721" width="38.88" height="27" rx="4" ry="4" fill="var(--bg)" stroke="var(--_inner-stroke)" stroke-width="0.5" />
<text x="988.8875" y="1734.5" text-anchor="middle" dy="0.35em" font-size="11" font-weight="400" fill="var(--_text-muted)">&quot;读取&quot;</text>
<rect x="428.1300000000001" y="1894" width="56.04" height="27" rx="4" ry="4" fill="var(--bg)" stroke="var(--_inner-stroke)" stroke-width="0.5" />
<text x="456.1500000000001" y="1907.5" text-anchor="middle" dy="0.35em" font-size="11" font-weight="400" fill="var(--_text-muted)">&quot;IPC文件&quot;</text>
<rect x="321.49000000000007" y="1548" width="50.32" height="27" rx="4" ry="4" fill="var(--bg)" stroke="var(--_inner-stroke)" stroke-width="0.5" />
<text x="346.6500000000001" y="1561.5" text-anchor="middle" dy="0.35em" font-size="11" font-weight="400" fill="var(--_text-muted)">&quot;定时任务&quot;</text>
<rect x="891.0875" y="1375" width="84.64" height="27" rx="4" ry="4" fill="var(--bg)" stroke="var(--_inner-stroke)" stroke-width="0.5" />
<text x="933.4075" y="1388.5" text-anchor="middle" dy="0.35em" font-size="11" font-weight="400" fill="var(--_text-muted)">&quot;挂载 volumes&quot;</text>
<rect x="987.7275000000001" y="1375" width="84.64" height="27" rx="4" ry="4" fill="var(--bg)" stroke="var(--_inner-stroke)" stroke-width="0.5" />
<text x="1030.0475000000001" y="1388.5" text-anchor="middle" dy="0.35em" font-size="11" font-weight="400" fill="var(--_text-muted)">&quot;挂载 volumes&quot;</text>
<rect x="247.23749999999998" y="96" width="89.2" height="36" rx="0" ry="0" fill="#e1f5fe" stroke="#01579b" stroke-width="2px" />
<rect x="143.56249999999997" y="269" width="296.55" height="36" rx="0" ry="0" fill="#e8f5e9" stroke="#2e7d32" stroke-width="2px" />
<rect x="154.28749999999997" y="425" width="275.1" height="36" rx="0" ry="0" fill="#e8f5e9" stroke="#2e7d32" stroke-width="2px" />
<rect x="453.38750000000005" y="425" width="189.3" height="36" rx="0" ry="0" fill="#e8f5e9" stroke="#2e7d32" stroke-width="2px" />
<rect x="188.3125000000001" y="938" width="182.15" height="36" rx="0" ry="0" fill="#fff3e0" stroke="#e65100" stroke-width="2px" />
<rect x="62" y="2132" width="175" height="36" rx="0" ry="0" fill="#fff3e0" stroke="#e65100" stroke-width="2px" />
<rect x="204.33749999999998" y="598" width="175" height="36" rx="0" ry="0" fill="#fff3e0" stroke="#e65100" stroke-width="2px" />
<rect x="99.60000000000005" y="1111" width="225.05" height="36" rx="0" ry="0" fill="#fff3e0" stroke="#e65100" stroke-width="2px" />
<rect x="368.6500000000001" y="1976" width="175" height="36" rx="0" ry="0" fill="#fff3e0" stroke="#e65100" stroke-width="2px" />
<rect x="278.1500000000001" y="2132" width="246.50000000000003" height="36" rx="0" ry="0" fill="#fff3e0" stroke="#e65100" stroke-width="2px" />
<rect x="803.0075000000002" y="1284" width="260.8" height="36" rx="0" ry="0" fill="#fce4ec" stroke="#c2185b" stroke-width="2px" />
<rect x="726.8125" y="1457" width="296.55" height="36" rx="0" ry="0" fill="#fce4ec" stroke="#c2185b" stroke-width="2px" />
<rect x="748.2624999999999" y="1630" width="253.65" height="36" rx="0" ry="0" fill="#f3e5f5" stroke="#7b1fa2" stroke-width="2px" />
<rect x="638.0375000000001" y="1803" width="246.50000000000003" height="36" rx="0" ry="0" fill="#f3e5f5" stroke="#7b1fa2" stroke-width="2px" />
<rect x="908.5375" y="1803" width="160.70000000000002" height="36" rx="0" ry="0" fill="#f3e5f5" stroke="#7b1fa2" stroke-width="2px" />
<rect x="1130.3675" y="761" width="217.9" height="33" fill="#eceff1" stroke="none" />
<line x1="1130.3675" y1="761" x2="1130.3675" y2="794" stroke="#546e7a" stroke-width="2px" />
<line x1="1348.2675000000002" y1="761" x2="1348.2675000000002" y2="794" stroke="#546e7a" stroke-width="2px" />
<ellipse cx="1239.3175" cy="794" rx="108.95" ry="7" fill="#eceff1" stroke="#546e7a" stroke-width="2px" />
<ellipse cx="1239.3175" cy="761" rx="108.95" ry="7" fill="#eceff1" stroke="#546e7a" stroke-width="2px" />
<rect x="1138.1175" y="1457" width="96.35000000000001" height="36" rx="0" ry="0" fill="#eceff1" stroke="#546e7a" stroke-width="2px" />
<rect x="1258.4675000000002" y="1457" width="82.05000000000001" height="36" rx="0" ry="0" fill="#eceff1" stroke="#546e7a" stroke-width="2px" />
<text x="291.8375" y="114" text-anchor="middle" dy="0.35em" font-size="13" font-weight="500" fill="var(--_text)">&quot;Web UI&quot;</text>
<text x="291.8375" y="287" text-anchor="middle" dy="0.35em" font-size="13" font-weight="500" fill="var(--_text)">&quot;server.ts&lt;br/&gt;(Express + WebSocket)&quot;</text>
<text x="291.8375" y="443" text-anchor="middle" dy="0.35em" font-size="13" font-weight="500" fill="var(--_text)">&quot;channels/web.ts&lt;br/&gt;(WebChannel)&quot;</text>
<text x="548.0375" y="443" text-anchor="middle" dy="0.35em" font-size="13" font-weight="500" fill="var(--_text)">&quot;router.ts&lt;br/&gt;(消息路由)&quot;</text>
<text x="279.3875000000001" y="956" text-anchor="middle" dy="0.35em" font-size="13" font-weight="500" fill="var(--_text)">&quot;index.ts&lt;br/&gt;(主编排器)&quot;</text>
<text x="149.5" y="2150" text-anchor="middle" dy="0.35em" font-size="13" font-weight="500" fill="var(--_text)">&quot;config.ts&lt;br/&gt;(配置)&quot;</text>
<text x="291.8375" y="616" text-anchor="middle" dy="0.35em" font-size="13" font-weight="500" fill="var(--_text)">&quot;db.ts&lt;br/&gt;(SQLite)&quot;</text>
<text x="212.12500000000006" y="1129" text-anchor="middle" dy="0.35em" font-size="13" font-weight="500" fill="var(--_text)">&quot;group-queue.ts&lt;br/&gt;(并发队列)&quot;</text>
<text x="456.1500000000001" y="1994" text-anchor="middle" dy="0.35em" font-size="13" font-weight="500" fill="var(--_text)">&quot;ipc.ts&lt;br/&gt;(IPC监控)&quot;</text>
<text x="401.4000000000001" y="2150" text-anchor="middle" dy="0.35em" font-size="13" font-weight="500" fill="var(--_text)">&quot;task-scheduler.ts&lt;br/&gt;(任务调度)&quot;</text>
<text x="933.4075000000001" y="1302" text-anchor="middle" dy="0.35em" font-size="13" font-weight="500" fill="var(--_text)">&quot;container-runner.ts&lt;br/&gt;(容器启动)&quot;</text>
<text x="875.0875" y="1475" text-anchor="middle" dy="0.35em" font-size="13" font-weight="500" fill="var(--_text)">&quot;container-runtime.ts&lt;br/&gt;(Docker管理)&quot;</text>
<text x="875.0875" y="1648" text-anchor="middle" dy="0.35em" font-size="13" font-weight="500" fill="var(--_text)">&quot;agent-runner&lt;br/&gt;(Claude SDK)&quot;</text>
<text x="761.2875000000001" y="1821" text-anchor="middle" dy="0.35em" font-size="13" font-weight="500" fill="var(--_text)">&quot;groups/{name}/&lt;br/&gt;CLAUDE.md&quot;</text>
<text x="988.8875" y="1821" text-anchor="middle" dy="0.35em" font-size="13" font-weight="500" fill="var(--_text)">&quot;global/CLAUDE.md&quot;</text>
<text x="1239.3175" y="777.5" text-anchor="middle" dy="0.35em" font-size="13" font-weight="500" fill="var(--_text)">&quot;messages.db&lt;br/&gt;(SQLite)&quot;</text>
<text x="1186.2925" y="1475" text-anchor="middle" dy="0.35em" font-size="13" font-weight="500" fill="var(--_text)">&quot;groups/&quot;</text>
<text x="1299.4925000000003" y="1475" text-anchor="middle" dy="0.35em" font-size="13" font-weight="500" fill="var(--_text)">&quot;data/&quot;</text>
</svg>