<svg xmlns="http://www.w3.org/2000/svg" viewBox="0 0 1572.3725000000002 1414" width="1572.3725000000002" height="1414" style="--bg:#1a1b26;--fg:#a9b1d6;--line:#3d59a1;--accent:#7aa2f7;--muted:#565f89;background:var(--bg)">
<style>
  @import url('https://fonts.googleapis.com/css2?family=Inter:wght@400;500;600;700&amp;display=swap');
  text { font-family: 'Inter', system-ui, sans-serif; }
  svg {
    /* Derived from --bg and --fg (overridable via --line, --accent, etc.) */
    --_text:          var(--fg);
    --_text-sec:      var(--muted, color-mix(in srgb, var(--fg) 60%, var(--bg)));
    --_text-muted:    var(--muted, color-mix(in srgb, var(--fg) 40%, var(--bg)));
    --_text-faint:    color-mix(in srgb, var(--fg) 25%, var(--bg));
    --_line:          var(--line, color-mix(in srgb, var(--fg) 30%, var(--bg)));
    --_arrow:         var(--accent, color-mix(in srgb, var(--fg) 50%, var(--bg)));
    --_node-fill:     var(--surface, color-mix(in srgb, var(--fg) 3%, var(--bg)));
    --_node-stroke:   var(--border, color-mix(in srgb, var(--fg) 20%, var(--bg)));
    --_group-fill:    var(--bg);
    --_group-hdr:     color-mix(in srgb, var(--fg) 5%, var(--bg));
    --_inner-stroke:  color-mix(in srgb, var(--fg) 12%, var(--bg));
    --_key-badge:     color-mix(in srgb, var(--fg) 10%, var(--bg));
  }
</style>
<defs>
  <marker id="arrowhead" markerWidth="8" markerHeight="4.8" refX="8" refY="2.4" orient="auto">
    <polygon points="0 0, 8 2.4, 0 4.8" fill="var(--_arrow)" />
  </marker>
  <marker id="arrowhead-start" markerWidth="8" markerHeight="4.8" refX="0" refY="2.4" orient="auto-start-reverse">
    <polygon points="8 0, 0 2.4, 8 4.8" fill="var(--_arrow)" />
  </marker>
</defs>
<rect x="80.02999999999997" y="213" width="377.23000000000013" height="112" rx="0" ry="0" fill="var(--_group-fill)" stroke="var(--_node-stroke)" stroke-width="1" />
<rect x="80.02999999999997" y="213" width="377.23000000000013" height="28" rx="0" ry="0" fill="var(--_group-hdr)" stroke="var(--_node-stroke)" stroke-width="1" />
<text x="92.02999999999997" y="227" dy="0.35em" font-size="12" font-weight="600" fill="var(--_text-sec)">&quot;用户层&quot;</text>
<rect x="40" y="386" width="649.0475" height="112" rx="0" ry="0" fill="var(--_group-fill)" stroke="var(--_node-stroke)" stroke-width="1" />
<rect x="40" y="386" width="649.0475" height="28" rx="0" ry="0" fill="var(--_group-hdr)" stroke="var(--_node-stroke)" stroke-width="1" />
<text x="52" y="400" dy="0.35em" font-size="12" font-weight="600" fill="var(--_text-sec)">&quot;消息通道&quot;</text>
<rect x="62.09749999999997" y="559" width="483.0049999999999" height="296" rx="0" ry="0" fill="var(--_group-fill)" stroke="var(--_node-stroke)" stroke-width="1" />
<rect x="62.09749999999997" y="559" width="483.0049999999999" height="28" rx="0" ry="0" fill="var(--_group-hdr)" stroke="var(--_node-stroke)" stroke-width="1" />
<text x="74.09749999999997" y="573" dy="0.35em" font-size="12" font-weight="600" fill="var(--_text-sec)">&quot;核心编排层 (index.ts)&quot;</text>
<rect x="759.1600000000001" y="40" width="376.91250000000014" height="1161" rx="0" ry="0" fill="var(--_group-fill)" stroke="var(--_node-stroke)" stroke-width="1" />
<rect x="759.1600000000001" y="40" width="376.91250000000014" height="28" rx="0" ry="0" fill="var(--_group-hdr)" stroke="var(--_node-stroke)" stroke-width="1" />
<text x="771.1600000000001" y="54" dy="0.35em" font-size="12" font-weight="600" fill="var(--_text-sec)">&quot;容器层&quot;</text>
<rect x="1156.0725000000002" y="213" width="376.29999999999995" height="1161" rx="0" ry="0" fill="var(--_group-fill)" stroke="var(--_node-stroke)" stroke-width="1" />
<rect x="1156.0725000000002" y="213" width="376.29999999999995" height="28" rx="0" ry="0" fill="var(--_group-hdr)" stroke="var(--_node-stroke)" stroke-width="1" />
<text x="1168.0725000000002" y="227" dy="0.35em" font-size="12" font-weight="600" fill="var(--_text-sec)">&quot;Agent 容器 (Docker)&quot;</text>
<rect x="477.26000000000016" y="213" width="240.44999999999993" height="112" rx="0" ry="0" fill="var(--_group-fill)" stroke="var(--_node-stroke)" stroke-width="1" />
<rect x="477.26000000000016" y="213" width="240.44999999999993" height="28" rx="0" ry="0" fill="var(--_group-hdr)" stroke="var(--_node-stroke)" stroke-width="1" />
<text x="489.26000000000016" y="227" dy="0.35em" font-size="12" font-weight="600" fill="var(--_text-sec)">&quot;前端&quot;</text>
<polyline points="285.19750000000005,305 285.19750000000005,325 169.07999999999998,325 169.07999999999998,460 82.71,460" fill="none" stroke="var(--_line)" stroke-width="0.75" marker-end="url(#arrowhead)" />
<polyline points="168.42249999999999,305 168.42249999999999,325 256.53999999999996,325 256.53999999999996,460 314.91,460" fill="none" stroke="var(--_line)" stroke-width="0.75" marker-end="url(#arrowhead)" />
<polyline points="285.19750000000005,305 285.19750000000005,325 397.81000000000006,325 397.81000000000006,460 356.52250000000004,460" fill="none" stroke="var(--_line)" stroke-width="0.75" marker-end="url(#arrowhead)" />
<polyline points="198.81,478 198.81,498 135.06,498 135.06,638.5 176.915,638.5" fill="none" stroke="var(--_line)" stroke-width="0.75" marker-end="url(#arrowhead)" />
<polyline points="497.64750000000004,478 497.64750000000004,498 433.89750000000004,498 433.89750000000004,638.5 316.16499999999996,638.5" fill="none" stroke="var(--_line)" stroke-width="0.75" marker-end="url(#arrowhead)" />
<polyline points="246.54,662 246.54,799" fill="none" stroke="var(--_line)" stroke-width="0.75" marker-end="url(#arrowhead)" />
<polyline points="246.54,835 246.54,875 888.3175000000001,875 888.3175000000001,990 853.2725000000003,990" fill="none" stroke="var(--_line)" stroke-width="0.75" marker-end="url(#arrowhead)" />
<polyline points="972.9475000000002,1008 972.9475000000002,1145" fill="none" stroke="var(--_line)" stroke-width="0.75" marker-end="url(#arrowhead)" />
<polyline points="972.9475000000002,1181 972.9475000000002,1221 1344.2225,1221 1344.2225,1318" fill="none" stroke="var(--_line)" stroke-width="0.75" marker-end="url(#arrowhead)" />
<polyline points="1323.6425000000002,305 1323.6425000000002,325 1344.2225,325 1344.2225,990 1092.6225000000002,990" fill="none" stroke="var(--_line)" stroke-width="0.75" marker-end="url(#arrowhead)" />
<polyline points="972.9475000000002,972 972.9475000000002,952 1021.0600000000002,952 1021.0600000000002,498 543.735,498 543.735,460 314.91,460" fill="none" stroke="var(--_line)" stroke-width="0.75" marker-end="url(#arrowhead)" />
<polyline points="923.5600000000001,132 923.5600000000001,287 1279.0425000000002,287" fill="none" stroke="var(--_line)" stroke-width="0.75" stroke-dasharray="4 4" marker-end="url(#arrowhead)" />
<polyline points="1323.6425000000002,305 1323.6425000000002,325 1290.7525000000003,325 1290.7525000000003,460 314.91,460" fill="none" stroke="var(--_line)" stroke-width="0.75" marker-end="url(#arrowhead)" />
<polyline points="890.1100000000001,656.5 890.1100000000001,817 330.46500000000003,817" fill="none" stroke="var(--_line)" stroke-width="0.75" stroke-dasharray="4 4" marker-end="url(#arrowhead)" />
<polyline points="597.485,305 597.485,460 638.7725,460" fill="none" stroke="var(--_line)" stroke-width="0.75" marker-end="url(#arrowhead)" marker-start="url(#arrowhead-start)" />
<rect x="149.64" y="360" width="38.88" height="27" rx="4" ry="4" fill="var(--bg)" stroke="var(--_inner-stroke)" stroke-width="0.5" />
<text x="169.07999999999998" y="373.5" text-anchor="middle" dy="0.35em" font-size="11" font-weight="400" fill="var(--_text-muted)">&quot;消息&quot;</text>
<rect x="228.51999999999995" y="360" width="56.04" height="27" rx="4" ry="4" fill="var(--bg)" stroke="var(--_inner-stroke)" stroke-width="0.5" />
<text x="256.53999999999996" y="373.5" text-anchor="middle" dy="0.35em" font-size="11" font-weight="400" fill="var(--_text-muted)">Baileys</text>
<rect x="369.7900000000001" y="360" width="56.04" height="27" rx="4" ry="4" fill="var(--bg)" stroke="var(--_inner-stroke)" stroke-width="0.5" />
<text x="397.81000000000006" y="373.5" text-anchor="middle" dy="0.35em" font-size="11" font-weight="400" fill="var(--_text-muted)">HTTP/WS</text>
<rect x="81.3" y="533" width="107.52000000000001" height="27" rx="4" ry="4" fill="var(--bg)" stroke="var(--_inner-stroke)" stroke-width="0.5" />
<text x="135.06" y="546.5" text-anchor="middle" dy="0.35em" font-size="11" font-weight="400" fill="var(--_text-muted)">&quot;storeMessage()&quot;</text>
<rect x="380.13750000000005" y="533" width="107.52000000000001" height="27" rx="4" ry="4" fill="var(--bg)" stroke="var(--_inner-stroke)" stroke-width="0.5" />
<text x="433.89750000000004" y="546.5" text-anchor="middle" dy="0.35em" font-size="11" font-weight="400" fill="var(--_text-muted)">&quot;storeMessage()&quot;</text>
<rect x="221.38" y="717" width="50.32" height="27" rx="4" ry="4" fill="var(--bg)" stroke="var(--_inner-stroke)" stroke-width="0.5" />
<text x="246.54" y="730.5" text-anchor="middle" dy="0.35em" font-size="11" font-weight="400" fill="var(--_text-muted)">&quot;消息轮询&quot;</text>
<rect x="811.6775000000001" y="890" width="153.28" height="27" rx="4" ry="4" fill="var(--bg)" stroke="var(--_inner-stroke)" stroke-width="0.5" />
<text x="888.3175000000001" y="903.5" text-anchor="middle" dy="0.35em" font-size="11" font-weight="400" fill="var(--_text-muted)">&quot;processGroupMessages()&quot;</text>
<rect x="922.0475000000002" y="1063" width="101.8" height="27" rx="4" ry="4" fill="var(--bg)" stroke="var(--_inner-stroke)" stroke-width="0.5" />
<text x="972.9475000000002" y="1076.5" text-anchor="middle" dy="0.35em" font-size="11" font-weight="400" fill="var(--_text-muted)">&quot;mount volumes&quot;</text>
<rect x="1296.1825000000001" y="1236" width="96.08" height="27" rx="4" ry="4" fill="var(--bg)" stroke="var(--_inner-stroke)" stroke-width="0.5" />
<text x="1344.2225" y="1249.5" text-anchor="middle" dy="0.35em" font-size="11" font-weight="400" fill="var(--_text-muted)">&quot;stdin/stdout&quot;</text>
<rect x="1253.2825" y="625" width="181.88" height="27" rx="4" ry="4" fill="var(--bg)" stroke="var(--_inner-stroke)" stroke-width="0.5" />
<text x="1344.2225" y="638.5" text-anchor="middle" dy="0.35em" font-size="11" font-weight="400" fill="var(--_text-muted)">&quot;---NANOCLAW_OUTPUT_START---&quot;</text>
<rect x="970.1600000000002" y="717" width="101.8" height="27" rx="4" ry="4" fill="var(--bg)" stroke="var(--_inner-stroke)" stroke-width="0.5" />
<text x="1021.0600000000002" y="730.5" text-anchor="middle" dy="0.35em" font-size="11" font-weight="400" fill="var(--_text-muted)">&quot;sendMessage()&quot;</text>
<rect x="884.1" y="187" width="78.92" height="27" rx="4" ry="4" fill="var(--bg)" stroke="var(--_inner-stroke)" stroke-width="0.5" />
<text x="923.5600000000001" y="200.5" text-anchor="middle" dy="0.35em" font-size="11" font-weight="400" fill="var(--_text-muted)">&quot;监听 IPC 文件&quot;</text>
<rect x="1265.5925000000002" y="360" width="50.32" height="27" rx="4" ry="4" fill="var(--bg)" stroke="var(--_inner-stroke)" stroke-width="0.5" />
<text x="1290.7525000000003" y="373.5" text-anchor="middle" dy="0.35em" font-size="11" font-weight="400" fill="var(--_text-muted)">&quot;写入消息&quot;</text>
<rect x="839.2100000000002" y="717" width="101.8" height="27" rx="4" ry="4" fill="var(--bg)" stroke="var(--_inner-stroke)" stroke-width="0.5" />
<text x="890.1100000000001" y="730.5" text-anchor="middle" dy="0.35em" font-size="11" font-weight="400" fill="var(--_text-muted)">&quot;getDueTasks()&quot;</text>
<rect x="569.465" y="360" width="56.04" height="27" rx="4" ry="4" fill="var(--bg)" stroke="var(--_inner-stroke)" stroke-width="0.5" />
<text x="597.485" y="373.5" text-anchor="middle" dy="0.35em" font-size="11" font-weight="400" fill="var(--_text-muted)">HTTP/WS</text>
<rect x="113.09749999999998" y="269" width="110.65" height="36" rx="0" ry="0" fill="var(--_node-fill)" stroke="var(--_node-stroke)" stroke-width="0.75" />
<rect x="247.74750000000006" y="269" width="74.9" height="36" rx="0" ry="0" fill="var(--_node-fill)" stroke="var(--_node-stroke)" stroke-width="0.75" />
<rect x="82.71" y="442" width="232.20000000000002" height="36" rx="0" ry="0" fill="var(--_node-fill)" stroke="var(--_node-stroke)" stroke-width="0.75" />
<rect x="356.52250000000004" y="442" width="282.25" height="36" rx="0" ry="0" fill="var(--_node-fill)" stroke="var(--_node-stroke)" stroke-width="0.75" />
<rect x="176.915" y="622" width="139.25" height="33" fill="#fff3e0" stroke="none" />
<line x1="176.915" y1="622" x2="176.915" y2="655" stroke="#e65100" stroke-width="2px" />
<line x1="316.16499999999996" y1="622" x2="316.16499999999996" y2="655" stroke="#e65100" stroke-width="2px" />
<ellipse cx="246.54" cy="655" rx="69.625" ry="7" fill="#fff3e0" stroke="#e65100" stroke-width="2px" />
<ellipse cx="246.54" cy="622" rx="69.625" ry="7" fill="#fff3e0" stroke="#e65100" stroke-width="2px" />
<rect x="162.61499999999998" y="799" width="167.85000000000002" height="36" rx="0" ry="0" fill="var(--_node-fill)" stroke="var(--_node-stroke)" stroke-width="0.75" />
<rect x="362.4024999999999" y="799" width="160.70000000000002" height="36" rx="0" ry="0" fill="#e1f5fe" stroke="#01579b" stroke-width="2px" />
<rect x="853.2725000000003" y="972" width="239.35000000000002" height="36" rx="0" ry="0" fill="var(--_node-fill)" stroke="var(--_node-stroke)" stroke-width="0.75" />
<rect x="831.8225000000002" y="1145" width="282.25" height="36" rx="0" ry="0" fill="var(--_node-fill)" stroke="var(--_node-stroke)" stroke-width="0.75" />
<rect x="839.635" y="96" width="167.85000000000002" height="36" rx="0" ry="0" fill="var(--_node-fill)" stroke="var(--_node-stroke)" stroke-width="0.75" />
<rect x="781.1600000000001" y="620.5" width="217.9" height="36" rx="0" ry="0" fill="var(--_node-fill)" stroke="var(--_node-stroke)" stroke-width="0.75" />
<rect x="1178.0725" y="1318" width="332.3" height="36" rx="0" ry="0" fill="var(--_node-fill)" stroke="var(--_node-stroke)" stroke-width="0.75" />
<rect x="1279.0425000000002" y="269" width="89.2" height="36" rx="0" ry="0" fill="var(--_node-fill)" stroke="var(--_node-stroke)" stroke-width="0.75" />
<rect x="499.26" y="269" width="196.45000000000002" height="36" rx="0" ry="0" fill="var(--_node-fill)" stroke="var(--_node-stroke)" stroke-width="0.75" />
<text x="168.42249999999999" y="287" text-anchor="middle" dy="0.35em" font-size="13" font-weight="500" fill="var(--_text)">WhatsApp 用户</text>
<text x="285.19750000000005" y="287" text-anchor="middle" dy="0.35em" font-size="13" font-weight="500" fill="var(--_text)">Web 用户</text>
<text x="198.81" y="460" text-anchor="middle" dy="0.35em" font-size="13" font-weight="500" fill="var(--_text)">WhatsApp Channel&lt;br/&gt;Baileys</text>
<text x="497.64750000000004" y="460" text-anchor="middle" dy="0.35em" font-size="13" font-weight="500" fill="var(--_text)">Web Channel&lt;br/&gt;Express + WebSocket</text>
<text x="246.54" y="638.5" text-anchor="middle" dy="0.35em" font-size="13" font-weight="500" fill="var(--_text)">SQLite Database</text>
<text x="246.54" y="817" text-anchor="middle" dy="0.35em" font-size="13" font-weight="500" fill="var(--_text)">GroupQueue&lt;br/&gt;消息队列</text>
<text x="442.75249999999994" y="817" text-anchor="middle" dy="0.35em" font-size="13" font-weight="500" fill="var(--_text)">router.ts&lt;br/&gt;消息路由</text>
<text x="972.9475000000002" y="990" text-anchor="middle" dy="0.35em" font-size="13" font-weight="500" fill="var(--_text)">container-runner.ts&lt;br/&gt;容器启动器</text>
<text x="972.9475000000002" y="1163" text-anchor="middle" dy="0.35em" font-size="13" font-weight="500" fill="var(--_text)">container-runtime.ts&lt;br/&gt;Docker 运行时</text>
<text x="923.56" y="114" text-anchor="middle" dy="0.35em" font-size="13" font-weight="500" fill="var(--_text)">ipc.ts&lt;br/&gt;IPC 文件监听</text>
<text x="890.1100000000001" y="638.5" text-anchor="middle" dy="0.35em" font-size="13" font-weight="500" fill="var(--_text)">task-scheduler.ts&lt;br/&gt;定时任务</text>
<text x="1344.2225" y="1336" text-anchor="middle" dy="0.35em" font-size="13" font-weight="500" fill="var(--_text)">agent-runner/index.ts&lt;br/&gt;Claude Agent SDK</text>
<text x="1323.6425000000002" y="287" text-anchor="middle" dy="0.35em" font-size="13" font-weight="500" fill="var(--_text)">IPC 文件轮询</text>
<text x="597.485" y="287" text-anchor="middle" dy="0.35em" font-size="13" font-weight="500" fill="var(--_text)">React + Vite&lt;br/&gt;Web UI</text>
</svg>