<svg xmlns="http://www.w3.org/2000/svg" viewBox="0 0 1223.025 1010" width="1223.025" height="1010" style="--bg:#ffffff;--fg:#1f2328;--line:#d1d9e0;--accent:#0969da;--muted:#59636e;background:var(--bg)">
<style>
  @import url('https://fonts.googleapis.com/css2?family=Inter:wght@400;500;600;700&amp;display=swap');
  text { font-family: 'Inter', system-ui, sans-serif; }
  svg {
    /* Derived from --bg and --fg (overridable via --line, --accent, etc.) */
    --_text:          var(--fg);
    --_text-sec:      var(--muted, color-mix(in srgb, var(--fg) 60%, var(--bg)));
    --_text-muted:    var(--muted, color-mix(in srgb, var(--fg) 40%, var(--bg)));
    --_text-faint:    color-mix(in srgb, var(--fg) 25%, var(--bg));
    --_line:          var(--line, color-mix(in srgb, var(--fg) 30%, var(--bg)));
    --_arrow:         var(--accent, color-mix(in srgb, var(--fg) 50%, var(--bg)));
    --_node-fill:     var(--surface, color-mix(in srgb, var(--fg) 3%, var(--bg)));
    --_node-stroke:   var(--border, color-mix(in srgb, var(--fg) 20%, var(--bg)));
    --_group-fill:    var(--bg);
    --_group-hdr:     color-mix(in srgb, var(--fg) 5%, var(--bg));
    --_inner-stroke:  color-mix(in srgb, var(--fg) 12%, var(--bg));
    --_key-badge:     color-mix(in srgb, var(--fg) 10%, var(--bg));
  }
</style>
<defs>
  <marker id="seq-arrow" markerWidth="8" markerHeight="4.8" refX="8" refY="2.4" orient="auto-start-reverse">
    <polygon points="0 0, 8 2.4, 0 4.8" fill="var(--_arrow)" />
  </marker>
  <marker id="seq-arrow-open" markerWidth="8" markerHeight="4.8" refX="8" refY="2.4" orient="auto-start-reverse">
    <polyline points="0 0, 8 2.4, 0 4.8" fill="none" stroke="var(--_arrow)" stroke-width="1" />
  </marker>
</defs>
<rect x="318.825" y="238" width="336.45" height="100" rx="0" ry="0" fill="none" stroke="var(--_node-stroke)" stroke-width="1" />
<rect x="318.825" y="238" width="79.8" height="18" fill="var(--_group-hdr)" stroke="var(--_node-stroke)" stroke-width="1" />
<text x="324.825" y="247" dy="0.35em" font-size="11" font-weight="600" fill="var(--_text-sec)">loop [每2秒]</text>
<rect x="318.825" y="346" width="874.2" height="464" rx="0" ry="0" fill="none" stroke="var(--_node-stroke)" stroke-width="1" />
<rect x="318.825" y="346" width="86.17999999999999" height="18" fill="var(--_group-hdr)" stroke="var(--_node-stroke)" stroke-width="1" />
<text x="324.825" y="355" dy="0.35em" font-size="11" font-weight="600" fill="var(--_text-sec)">alt [触发词匹配]</text>
<line x1="318.825" y1="762" x2="1193.025" y2="762" stroke="var(--_line)" stroke-width="0.75" stroke-dasharray="6 4" />
<text x="326.825" y="776" font-size="11" font-weight="400" fill="var(--_text-muted)">[无需触发]</text>
<line x1="85.325" y1="70" x2="85.325" y2="980" stroke="var(--_line)" stroke-width="0.75" stroke-dasharray="6 4" />
<line x1="228.825" y1="70" x2="228.825" y2="980" stroke="var(--_line)" stroke-width="0.75" stroke-dasharray="6 4" />
<line x1="368.825" y1="70" x2="368.825" y2="980" stroke="var(--_line)" stroke-width="0.75" stroke-dasharray="6 4" />
<line x1="547.05" y1="70" x2="547.05" y2="980" stroke="var(--_line)" stroke-width="0.75" stroke-dasharray="6 4" />
<line x1="751.325" y1="70" x2="751.325" y2="980" stroke="var(--_line)" stroke-width="0.75" stroke-dasharray="6 4" />
<line x1="941.3000000000001" y1="70" x2="941.3000000000001" y2="980" stroke="var(--_line)" stroke-width="0.75" stroke-dasharray="6 4" />
<line x1="1124.125" y1="70" x2="1124.125" y2="980" stroke="var(--_line)" stroke-width="0.75" stroke-dasharray="6 4" />
<line x1="85.325" y1="90" x2="228.825" y2="90" stroke="var(--_line)" stroke-width="0.75" marker-end="url(#seq-arrow)" />
<text x="157.075" y="84" text-anchor="middle" font-size="11" font-weight="400" fill="var(--_text-muted)">发送消息 (HTTP/WebSocket)</text>
<line x1="228.825" y1="130" x2="368.825" y2="130" stroke="var(--_line)" stroke-width="0.75" marker-end="url(#seq-arrow)" />
<text x="298.825" y="124" text-anchor="middle" font-size="11" font-weight="400" fill="var(--_text-muted)">storeMessage()</text>
<line x1="368.825" y1="170" x2="228.825" y2="170" stroke="var(--_line)" stroke-width="0.75" stroke-dasharray="6 4" marker-end="url(#seq-arrow)" />
<text x="298.825" y="164" text-anchor="middle" font-size="11" font-weight="400" fill="var(--_text-muted)">消息ID</text>
<line x1="228.825" y1="210" x2="85.325" y2="210" stroke="var(--_line)" stroke-width="0.75" stroke-dasharray="6 4" marker-end="url(#seq-arrow)" />
<text x="157.075" y="204" text-anchor="middle" font-size="11" font-weight="400" fill="var(--_text-muted)">确认</text>
<line x1="547.05" y1="278" x2="368.825" y2="278" stroke="var(--_line)" stroke-width="0.75" marker-end="url(#seq-arrow)" />
<text x="457.9375" y="272" text-anchor="middle" font-size="11" font-weight="400" fill="var(--_text-muted)">getNewMessages()</text>
<line x1="368.825" y1="318" x2="547.05" y2="318" stroke="var(--_line)" stroke-width="0.75" stroke-dasharray="6 4" marker-end="url(#seq-arrow)" />
<text x="457.9375" y="312" text-anchor="middle" font-size="11" font-weight="400" fill="var(--_text-muted)">新消息列表</text>
<line x1="547.05" y1="386" x2="751.325" y2="386" stroke="var(--_line)" stroke-width="0.75" marker-end="url(#seq-arrow)" />
<text x="649.1875" y="380" text-anchor="middle" font-size="11" font-weight="400" fill="var(--_text-muted)">queue.enqueueMessageCheck()</text>
<line x1="751.325" y1="426" x2="941.3000000000001" y2="426" stroke="var(--_line)" stroke-width="0.75" marker-end="url(#seq-arrow)" />
<text x="846.3125" y="420" text-anchor="middle" font-size="11" font-weight="400" fill="var(--_text-muted)">runAgent()</text>
<line x1="941.3000000000001" y1="466" x2="1124.125" y2="466" stroke="var(--_line)" stroke-width="0.75" marker-end="url(#seq-arrow)" />
<text x="1032.7125" y="460" text-anchor="middle" font-size="11" font-weight="400" fill="var(--_text-muted)">启动容器 (Docker)</text>
<polyline points="1124.125,506 1154.125,506 1154.125,526 1124.125,526" fill="none" stroke="var(--_line)" stroke-width="0.75" marker-end="url(#seq-arrow)" />
<text x="1160.125" y="516" dy="0.35em" font-size="11" font-weight="400" fill="var(--_text-muted)">读取 CLAUDE.md</text>
<polyline points="1124.125,576 1154.125,576 1154.125,596 1124.125,596" fill="none" stroke="var(--_line)" stroke-width="0.75" marker-end="url(#seq-arrow)" />
<text x="1160.125" y="586" dy="0.35em" font-size="11" font-weight="400" fill="var(--_text-muted)">调用 Claude Agent SDK</text>
<line x1="1124.125" y1="646" x2="941.3000000000001" y2="646" stroke="var(--_line)" stroke-width="0.75" stroke-dasharray="6 4" marker-end="url(#seq-arrow)" />
<text x="1032.7125" y="640" text-anchor="middle" font-size="11" font-weight="400" fill="var(--_text-muted)">输出结果</text>
<line x1="941.3000000000001" y1="686" x2="547.05" y2="686" stroke="var(--_line)" stroke-width="0.75" stroke-dasharray="6 4" marker-end="url(#seq-arrow)" />
<text x="744.175" y="680" text-anchor="middle" font-size="11" font-weight="400" fill="var(--_text-muted)">流式输出</text>
<line x1="547.05" y1="726" x2="368.825" y2="726" stroke="var(--_line)" stroke-width="0.75" marker-end="url(#seq-arrow)" />
<text x="457.9375" y="720" text-anchor="middle" font-size="11" font-weight="400" fill="var(--_text-muted)">标记消息为已处理</text>
<line x1="547.05" y1="790" x2="368.825" y2="790" stroke="var(--_line)" stroke-width="0.75" marker-end="url(#seq-arrow)" />
<text x="457.9375" y="784" text-anchor="middle" font-size="11" font-weight="400" fill="var(--_text-muted)">标记消息为已处理</text>
<polyline points="1124.125,830 1154.125,830 1154.125,850 1124.125,850" fill="none" stroke="var(--_line)" stroke-width="0.75" marker-end="url(#seq-arrow)" />
<text x="1160.125" y="840" dy="0.35em" font-size="11" font-weight="400" fill="var(--_text-muted)">写入 IPC 文件</text>
<line x1="941.3000000000001" y1="900" x2="368.825" y2="900" stroke="var(--_line)" stroke-width="0.75" marker-end="url(#seq-arrow)" />
<text x="655.0625" y="894" text-anchor="middle" font-size="11" font-weight="400" fill="var(--_text-muted)">持久化任务到 DB</text>
<line x1="368.825" y1="940" x2="941.3000000000001" y2="940" stroke="var(--_line)" stroke-width="0.75" stroke-dasharray="6 4" marker-end="url(#seq-arrow)" />
<text x="655.0625" y="934" text-anchor="middle" font-size="11" font-weight="400" fill="var(--_text-muted)">确认</text>
<rect x="544.725" y="74" width="120" height="27" fill="var(--_group-hdr)" stroke="var(--_node-stroke)" stroke-width="0.75" />
<polygon points="658.725,74 664.725,80 658.725,80" fill="var(--_inner-stroke)" />
<text x="604.725" y="87.5" text-anchor="middle" dy="0.35em" font-size="11" font-weight="400" fill="var(--_text-muted)">消息发送阶段</text>
<rect x="544.725" y="214" width="120" height="27" fill="var(--_group-hdr)" stroke="var(--_node-stroke)" stroke-width="0.75" />
<polygon points="658.725,214 664.725,220 658.725,220" fill="var(--_inner-stroke)" />
<text x="604.725" y="227.5" text-anchor="middle" dy="0.35em" font-size="11" font-weight="400" fill="var(--_text-muted)">消息处理阶段 (每2秒轮询)</text>
<rect x="544.725" y="794" width="120" height="27" fill="var(--_group-hdr)" stroke="var(--_node-stroke)" stroke-width="0.75" />
<polygon points="658.725,794 664.725,800 658.725,800" fill="var(--_inner-stroke)" />
<text x="604.725" y="807.5" text-anchor="middle" dy="0.35em" font-size="11" font-weight="400" fill="var(--_text-muted)">IPC 任务 (可选)</text>
<rect x="487.04999999999995" y="944" width="120" height="27" fill="var(--_group-hdr)" stroke="var(--_node-stroke)" stroke-width="0.75" />
<polygon points="601.05,944 607.05,950 601.05,950" fill="var(--_inner-stroke)" />
<text x="547.05" y="957.5" text-anchor="middle" dy="0.35em" font-size="11" font-weight="400" fill="var(--_text-muted)">定时调度器检测</text>
<rect x="30" y="30" width="110.65" height="40" rx="4" ry="4" fill="var(--_node-fill)" stroke="var(--_node-stroke)" stroke-width="1" />
<text x="85.325" y="50" text-anchor="middle" dy="0.35em" font-size="13" font-weight="500" fill="var(--_text)">用户 (Web UI)</text>
<rect x="180.64999999999998" y="30" width="96.35000000000001" height="40" rx="4" ry="4" fill="var(--_node-fill)" stroke="var(--_node-stroke)" stroke-width="1" />
<text x="228.825" y="50" text-anchor="middle" dy="0.35em" font-size="13" font-weight="500" fill="var(--_text)">server.ts</text>
<rect x="328.825" y="30" width="80" height="40" rx="4" ry="4" fill="var(--_node-fill)" stroke="var(--_node-stroke)" stroke-width="1" />
<text x="368.825" y="50" text-anchor="middle" dy="0.35em" font-size="13" font-weight="500" fill="var(--_text)">db.ts</text>
<rect x="448.82499999999993" y="30" width="196.45000000000002" height="40" rx="4" ry="4" fill="var(--_node-fill)" stroke="var(--_node-stroke)" stroke-width="1" />
<text x="547.05" y="50" text-anchor="middle" dy="0.35em" font-size="13" font-weight="500" fill="var(--_text)">index.ts (Message Loop)</text>
<rect x="685.2750000000001" y="30" width="132.10000000000002" height="40" rx="4" ry="4" fill="var(--_node-fill)" stroke="var(--_node-stroke)" stroke-width="1" />
<text x="751.325" y="50" text-anchor="middle" dy="0.35em" font-size="13" font-weight="500" fill="var(--_text)">group-queue.ts</text>
<rect x="857.375" y="30" width="167.85000000000002" height="40" rx="4" ry="4" fill="var(--_node-fill)" stroke="var(--_node-stroke)" stroke-width="1" />
<text x="941.3000000000001" y="50" text-anchor="middle" dy="0.35em" font-size="13" font-weight="500" fill="var(--_text)">container-runner.ts</text>
<rect x="1065.225" y="30" width="117.80000000000001" height="40" rx="4" ry="4" fill="var(--_node-fill)" stroke="var(--_node-stroke)" stroke-width="1" />
<text x="1124.125" y="50" text-anchor="middle" dy="0.35em" font-size="13" font-weight="500" fill="var(--_text)">agent-runner</text>
</svg>